<svg width="30" height="30" viewBox="0 0 30 30" fill="none" xmlns="http://www.w3.org/2000/svg">
<g id="leaf " clip-path="url(#clip0_739_549)">
<path id="Vector" d="M10.8 10.9708C14.2251 6.20856 12.7518 2.33223 12.7559 2.32763C12.6833 2.13351 12.7818 1.91731 12.976 1.84469C13.0739 1.80806 13.1826 1.81396 13.276 1.86093C19.4577 4.81893 22.1178 8.63743 22.6273 12.0898C22.8298 13.4311 22.7032 14.8015 22.2584 16.0831C21.8508 17.2656 21.1719 18.3362 20.2761 19.2091C18.553 20.8732 16.1449 21.6403 13.7682 20.8626C13.1602 20.6643 12.5865 20.3733 12.0674 19.9999C11.026 19.2524 10.236 18.2064 9.80201 17.0002C9.34157 15.7101 9.32691 14.3029 9.76045 13.0035C9.99987 12.2763 10.3506 11.5906 10.8 10.9708Z" fill="white"/>
<path id="Vector_2" d="M12.8312 2.45089C12.6807 2.30848 12.674 2.07096 12.8164 1.92043C12.9588 1.76989 13.1964 1.76324 13.3469 1.90565C13.358 1.91613 13.3684 1.92727 13.3781 1.93902C13.3919 1.95144 16.3765 5.07991 16.8028 11.1266L16.8073 11.1833C16.8993 12.5965 16.8539 14.0154 16.6716 15.4198L18.7124 13.8559C18.8834 13.7387 19.1169 13.7822 19.2341 13.9531C19.3402 14.1079 19.3157 14.3172 19.1768 14.4432L16.5097 16.481C15.9126 19.9913 13.8077 24.9574 16.5942 28.0656C16.7284 28.2235 16.7091 28.4604 16.5512 28.5946C16.4009 28.7223 16.1773 28.7118 16.0396 28.5706C12.6982 24.8462 15.1296 20.2324 15.795 16.2425L15.8037 16.1865C16.0743 14.5988 16.167 12.9858 16.0802 11.3776L13.6814 9.61997C13.5103 9.50302 13.4664 9.2695 13.5833 9.0984C13.7003 8.92729 13.9338 8.88341 14.1049 9.00036C14.112 9.00521 14.1189 9.01029 14.1256 9.01563L15.9843 10.384C15.4045 5.14249 12.8421 2.46346 12.8312 2.45089Z" fill="#56B280"/>
</g>
<defs>
<clipPath id="clip0_739_549">
<rect width="20.6274" height="20.6274" fill="white" transform="translate(0.467285 15.6353) rotate(-48)"/>
</clipPath>
</defs>
</svg>
