<svg width="146" height="24" viewBox="0 0 146 24" fill="none" xmlns="http://www.w3.org/2000/svg">
<g id="Stars">
<path id="Star 1" d="M12 0L14.6942 8.2918H23.4127L16.3593 13.4164L19.0534 21.7082L12 16.5836L4.94658 21.7082L7.64074 13.4164L0.587322 8.2918H9.30583L12 0Z" fill="#56B280"/>
<path id="Star 2" d="M41.189 0L43.8831 8.2918H52.6016L45.5482 13.4164L48.2424 21.7082L41.189 16.5836L34.1355 21.7082L36.8297 13.4164L29.7763 8.2918H38.4948L41.189 0Z" fill="#56B280"/>
<path id="Star 3" d="M70.3784 0L73.0726 8.2918H81.7911L74.7377 13.4164L77.4318 21.7082L70.3784 16.5836L63.325 21.7082L66.0192 13.4164L58.9657 8.2918H67.6842L70.3784 0Z" fill="#56B280"/>
<path id="Star 4" d="M99.5679 0L102.262 8.2918H110.981L103.927 13.4164L106.621 21.7082L99.5679 16.5836L92.5144 21.7082L95.2086 13.4164L88.1552 8.2918H96.8737L99.5679 0Z" fill="#56B280"/>
<g id="Star 5">
<path d="M133.946 0L136.64 8.2918H145.358L138.305 13.4164L140.999 21.7082L133.946 16.5836L126.892 21.7082L129.587 13.4164L122.533 8.2918H131.252L133.946 0Z" fill="#5BC08A"/>
<path d="M133.946 0L136.64 8.2918H145.358L138.305 13.4164L140.999 21.7082L133.946 16.5836L126.892 21.7082L129.587 13.4164L122.533 8.2918H131.252L133.946 0Z" fill="url(#paint0_linear_743_253)"/>
</g>
</g>
<defs>
<linearGradient id="paint0_linear_743_253" x1="137" y1="15" x2="113" y2="13" gradientUnits="userSpaceOnUse">
<stop stop-color="white"/>
<stop offset="1" stop-color="white" stop-opacity="0"/>
</linearGradient>
</defs>
</svg>
